.
 
http://www.scenetime.com    -   SceneTime [ We been having it ] !!!


How come you press harder on a remote control when you know the battery is dead? so you better seed to get speed ;)

        Seed back for speed


...................................NFO:.................................................
                                                                             
 :::  :::  :::::  :::   :::   :::::    ::: :::     :::    :::::    
 :::  :::  ::::::::::  :::   :::::::    ::::: :::     :::   :::::::   
 :::  ::::::::::::::::::::::::::: ::: ::: :::     :::  :::::::::  
 :::  ::: :::::::::::: :::::: ::: ::: :::     :::  ::::::  
 :::  ::: ::: :::::::::: :::  ::: ::: :::  :::     :::  ::: :::  
 :::  ::: ::: :::::::::  :::  ::: ::: :::  :::  :  :::  ::: :::  
 :::  ::: ::: :::::::::: :::  ::: ::: :::  ::: ::: :::  ::: :::  
 :::  ::: ::: ::::::::::::  ::: ::: :::  ::: : : :::  ::: :::  
 :::..::: ::: :::::: ::::::  ::: ::: :::  ::::: :::::  ::: :::  
 ::::::::: :::::: ::::::  ::: ::::: ::::: :::::  ::: :::  
  ::::  ::: ::::::  ::::::  ::: :::  ::::   ::::  ::: :::  

                                                                              
                  NOTES                    
                                                                              
                  NOTES                    
                                                                              
                                                                              
                                                                              
 Encoded By .......:UnKnOwN                                                   
 Runtime ..........:1:54                                                      
 IMDb URL .........:http://www.imdb.com/title/tt0458339/                      
 Language .........:English                                                   
 File Size ........:1.01gb                                                    
 Release Date ......... 2011                                                  
 Source       ......... Erdna                                                 
 File Type    ......... Single AVI                                            
 PS3 Compatible ....... Go find out                                           
 Genre        ......... Action/Scifi                                          
                                                                              
                                                                              
 Video                                                                        
  ID                               : 0                                        
  Format                           : MPEG-4 Visual                            
  Format profile                   : Advanced Simple@L5                        
  Format settings, BVOP            : Yes                                       
  Format settings, QPel            : No                                        
  Format settings, GMC             : No warppoints                             
  Format settings, Matrix          : Custom                                    
  Codec ID                         : XVID                                      
  Codec ID/Hint                    : XviD                                      
  Duration                         : 1h 54mn                                   
  Bit rate                         : 1 380 Kbps                                
  Width                            : 640pixels                                 
  Height                           : 280 pixels                                
  Display aspect ratio             : 2.25.1                                    
  Frame rate                       : 29.997 fps                                
  Color space                      : YUV                                       
  Chroma subsampling               : 4:2:0                                     
  Bit depth                        : 8 bits                                    
  Scan type                        : Progressive                               
  Bits/(Pixel*Frame)               : 0.234                                     
  Stream size                      : 892 MiB (86%)                             
  Writing library                  : XviD 1.2.1 (UTC 2008-12-04)              
                                                                              
                                                                              
 Audio                                                                         
 ID                               : 1                                          
 Format                           : MPEG-Audio                                 
 Format/Info                      : Version 1                                  
 Mode extension                   : Layer 3                                    
 Codec ID                         : 55                                         
 Duration                         : 1h 54mn                                    
 Bit rate mode                    : Constant                                   
 Bit rate                         : 128 Kbps                                   
 Channel(s)                       : 2 channels                                 
 Channel positions                : Front: L R                                 
 Sampling rate                    : 48.0 KHz                                   
 Bit depth                        : 16 bits                                    
 Stream size                      : 302 MiB                                    
 Alignment                        : Aligned on interleaves                     
 Interleave, duration             : 42 ms (1.00 video frame)                   
 Interleave, preload duration     : 512 ms                                    
                                                                              
                                                                              
                                                                              
                                                                               
                                                                              
                                                                              
                                                                              
                                 SYSPNOSIS                                    
 After being deemed unfit for military service, Steve Rogers volunteers for   
 a top secret research project that turns him into Captain America, a         
              superhero dedicated to defending America's ideals.              
                                                                              
                                RELEASE INFO                                  
                                                                              
                                                                              
Corrected A/R, cropped first 40 seconds of shaking,adjusted colors was to red,
 denoiser,sharpen CM bla bla,Audio cleaned and muxed back very watchable cam  
                         Sample included                                      
                                                                              
                                                                              

                 
              
                                                                              
                                 LOOKING FOR                                  
                                                                              
               Re encoders great work flooding p2p with your crap(:           
                                                                              
                                                                              
                                                                              
                                                                              

               GREETZ & RESPECT               
  
                          NOBODY YET WILL LET YOU KNOW                        
                                                                              
                          MORE GOODIES COMING REAL SOON